<?xml version="1.0" encoding="UTF-8"?>
<svg xmlns="http://www.w3.org/2000/svg" xmlns:xlink="http://www.w3.org/1999/xlink" width="32px" height="32px" viewBox="0 0 32 32" version="1.1">
<g id="surface1">
<path style=" stroke:none;fill-rule:nonzero;fill:rgb(98.823529%,73.725492%,13.333334%);fill-opacity:1;" d="M 7.890625 5.59375 C 8.054688 5.59375 8.21875 5.59375 8.382812 5.589844 C 8.78125 5.589844 9.179688 5.589844 9.574219 5.589844 C 9.898438 5.589844 10.222656 5.59375 10.546875 5.589844 C 10.59375 5.589844 10.636719 5.589844 10.6875 5.589844 C 10.78125 5.589844 10.875 5.589844 10.96875 5.589844 C 11.847656 5.589844 12.726562 5.589844 13.601562 5.59375 C 14.355469 5.59375 15.105469 5.59375 15.859375 5.59375 C 16.734375 5.589844 17.609375 5.589844 18.484375 5.589844 C 18.578125 5.589844 18.671875 5.589844 18.765625 5.589844 C 18.835938 5.589844 18.835938 5.589844 18.90625 5.589844 C 19.230469 5.59375 19.550781 5.589844 19.875 5.589844 C 20.308594 5.589844 20.742188 5.589844 21.179688 5.59375 C 21.335938 5.59375 21.496094 5.59375 21.65625 5.59375 C 23.042969 5.585938 24.253906 5.699219 25.3125 6.6875 C 26.21875 7.65625 26.414062 8.78125 26.398438 10.058594 C 26.398438 10.242188 26.398438 10.421875 26.398438 10.601562 C 26.398438 11.117188 26.394531 11.632812 26.390625 12.144531 C 26.390625 12.460938 26.390625 12.777344 26.390625 13.09375 C 26.390625 13.214844 26.390625 13.335938 26.386719 13.453125 C 26.355469 14.082031 26.355469 14.082031 26.535156 14.667969 C 26.640625 14.777344 26.746094 14.855469 26.875 14.9375 C 27.324219 15.519531 27.695312 16.265625 27.6875 17.011719 C 27.660156 17.546875 27.660156 17.546875 27.863281 18.011719 C 28.007812 18.101562 28.007812 18.101562 28.160156 18.171875 C 28.558594 18.378906 28.785156 18.828125 28.945312 19.234375 C 29.0625 19.675781 29.035156 20.136719 29.035156 20.59375 C 29.035156 20.707031 29.035156 20.816406 29.035156 20.929688 C 29.039062 21.164062 29.035156 21.398438 29.035156 21.632812 C 29.035156 21.929688 29.035156 22.230469 29.039062 22.527344 C 29.039062 22.761719 29.039062 22.992188 29.039062 23.222656 C 29.039062 23.332031 29.039062 23.441406 29.039062 23.554688 C 29.046875 24.394531 28.953125 25.109375 28.34375 25.746094 C 27.769531 26.214844 27.148438 26.382812 26.421875 26.386719 C 26.367188 26.386719 26.308594 26.386719 26.25 26.386719 C 26.058594 26.386719 25.867188 26.386719 25.679688 26.386719 C 25.546875 26.386719 25.414062 26.386719 25.28125 26.390625 C 25.003906 26.390625 24.726562 26.390625 24.449219 26.390625 C 24.09375 26.390625 23.738281 26.390625 23.382812 26.394531 C 23.109375 26.394531 22.835938 26.394531 22.558594 26.394531 C 22.429688 26.394531 22.296875 26.394531 22.167969 26.398438 C 21.984375 26.398438 21.800781 26.398438 21.617188 26.398438 C 21.5625 26.398438 21.511719 26.398438 21.453125 26.398438 C 20.765625 26.394531 20.144531 26.15625 19.625 25.703125 C 19.191406 25.25 18.980469 24.726562 18.992188 24.101562 C 18.992188 24.023438 18.996094 23.945312 18.996094 23.863281 C 18.996094 23.777344 18.996094 23.777344 19 23.6875 C 18.933594 23.6875 18.867188 23.6875 18.800781 23.6875 C 17.207031 23.695312 15.609375 23.699219 14.011719 23.699219 C 13.242188 23.703125 12.46875 23.703125 11.695312 23.707031 C 11.023438 23.707031 10.351562 23.710938 9.675781 23.710938 C 9.320312 23.710938 8.964844 23.710938 8.609375 23.714844 C 8.273438 23.714844 7.9375 23.714844 7.601562 23.714844 C 7.476562 23.714844 7.355469 23.714844 7.234375 23.71875 C 5.988281 23.726562 4.945312 23.519531 4 22.632812 C 3.367188 21.957031 2.980469 21.105469 2.984375 20.175781 C 2.980469 20.101562 2.980469 20.101562 2.980469 20.027344 C 2.980469 19.863281 2.980469 19.703125 2.980469 19.539062 C 2.980469 19.421875 2.980469 19.304688 2.980469 19.1875 C 2.976562 18.867188 2.976562 18.550781 2.976562 18.230469 C 2.976562 18.03125 2.976562 17.832031 2.976562 17.632812 C 2.972656 16.9375 2.972656 16.242188 2.972656 15.546875 C 2.972656 14.902344 2.972656 14.253906 2.96875 13.609375 C 2.964844 13.050781 2.964844 12.496094 2.964844 11.9375 C 2.964844 11.605469 2.964844 11.273438 2.964844 10.941406 C 2.960938 10.628906 2.960938 10.316406 2.960938 10.003906 C 2.960938 9.890625 2.960938 9.777344 2.960938 9.664062 C 2.953125 8.496094 3.21875 7.554688 4.035156 6.675781 C 5.144531 5.625 6.445312 5.585938 7.890625 5.59375 Z M 7.890625 5.59375 "/>
<path style=" stroke:none;fill-rule:nonzero;fill:rgb(99.607843%,51.372552%,14.509805%);fill-opacity:1;" d="M 7.890625 5.59375 C 8.054688 5.59375 8.21875 5.59375 8.382812 5.589844 C 8.78125 5.589844 9.179688 5.589844 9.574219 5.589844 C 9.898438 5.589844 10.222656 5.59375 10.546875 5.589844 C 10.59375 5.589844 10.636719 5.589844 10.6875 5.589844 C 10.78125 5.589844 10.875 5.589844 10.96875 5.589844 C 11.847656 5.589844 12.726562 5.589844 13.601562 5.59375 C 14.355469 5.59375 15.105469 5.59375 15.859375 5.59375 C 16.734375 5.589844 17.609375 5.589844 18.484375 5.589844 C 18.578125 5.589844 18.671875 5.589844 18.765625 5.589844 C 18.835938 5.589844 18.835938 5.589844 18.90625 5.589844 C 19.230469 5.59375 19.550781 5.589844 19.875 5.589844 C 20.308594 5.589844 20.742188 5.589844 21.179688 5.59375 C 21.335938 5.59375 21.496094 5.59375 21.65625 5.59375 C 23.039062 5.585938 24.257812 5.695312 25.3125 6.6875 C 25.605469 7.007812 25.878906 7.351562 26.0625 7.75 C 26.054688 7.875 26.054688 7.875 26 8 C 25.867188 8.109375 25.867188 8.109375 25.6875 8.21875 C 25.585938 8.285156 25.585938 8.285156 25.480469 8.351562 C 25.441406 8.375 25.40625 8.398438 25.367188 8.421875 C 25.160156 8.558594 24.960938 8.703125 24.761719 8.84375 C 24.335938 9.144531 23.910156 9.445312 23.480469 9.742188 C 23.027344 10.054688 22.574219 10.371094 22.125 10.6875 C 21.679688 11 21.230469 11.3125 20.78125 11.625 C 20.175781 12.046875 19.570312 12.46875 18.964844 12.894531 C 18.8125 13 18.65625 13.109375 18.5 13.21875 C 18.421875 13.273438 18.421875 13.273438 18.34375 13.328125 C 18.238281 13.402344 18.136719 13.472656 18.03125 13.546875 C 17.765625 13.734375 17.496094 13.921875 17.230469 14.109375 C 16.132812 14.898438 16.132812 14.898438 15.5625 15.125 C 15.488281 15.15625 15.488281 15.15625 15.410156 15.1875 C 15.023438 15.320312 14.628906 15.332031 14.222656 15.339844 C 14.140625 15.34375 14.140625 15.34375 14.058594 15.34375 C 13.222656 15.339844 12.523438 14.929688 11.804688 14.539062 C 11.710938 14.488281 11.617188 14.4375 11.523438 14.386719 C 11.332031 14.285156 11.144531 14.183594 10.953125 14.082031 C 10.71875 13.953125 10.480469 13.828125 10.238281 13.699219 C 8.621094 12.839844 7.035156 11.914062 5.519531 10.886719 C 5.464844 10.847656 5.410156 10.8125 5.351562 10.773438 C 3.3125 9.375 3.3125 9.375 3.125 8.625 C 3.054688 8.140625 3.28125 7.683594 3.539062 7.28125 C 3.644531 7.140625 3.757812 7.007812 3.875 6.875 C 3.910156 6.832031 3.945312 6.789062 3.984375 6.746094 C 5.023438 5.601562 6.457031 5.585938 7.890625 5.59375 Z M 7.890625 5.59375 "/>
<path style=" stroke:none;fill-rule:nonzero;fill:rgb(21.176471%,25.490198%,39.215687%);fill-opacity:1;" d="M 25.6875 14.0625 C 25.722656 14.082031 25.761719 14.101562 25.800781 14.121094 C 26.746094 14.613281 27.25 15.363281 27.617188 16.335938 C 27.679688 16.566406 27.6875 16.785156 27.6875 17.019531 C 27.664062 17.550781 27.664062 17.550781 27.863281 18.011719 C 28.007812 18.101562 28.007812 18.101562 28.160156 18.171875 C 28.558594 18.378906 28.785156 18.828125 28.945312 19.234375 C 29.0625 19.675781 29.035156 20.136719 29.035156 20.59375 C 29.035156 20.707031 29.035156 20.816406 29.035156 20.929688 C 29.039062 21.164062 29.035156 21.398438 29.035156 21.632812 C 29.035156 21.929688 29.035156 22.230469 29.039062 22.527344 C 29.039062 22.761719 29.039062 22.992188 29.039062 23.222656 C 29.039062 23.332031 29.039062 23.441406 29.039062 23.554688 C 29.046875 24.394531 28.953125 25.109375 28.34375 25.746094 C 27.769531 26.214844 27.148438 26.382812 26.421875 26.386719 C 26.367188 26.386719 26.308594 26.386719 26.25 26.386719 C 26.058594 26.386719 25.867188 26.386719 25.679688 26.386719 C 25.546875 26.386719 25.414062 26.386719 25.28125 26.390625 C 25.003906 26.390625 24.726562 26.390625 24.449219 26.390625 C 24.09375 26.390625 23.738281 26.390625 23.382812 26.394531 C 23.109375 26.394531 22.835938 26.394531 22.558594 26.394531 C 22.429688 26.394531 22.296875 26.394531 22.167969 26.398438 C 21.984375 26.398438 21.800781 26.398438 21.617188 26.398438 C 21.5625 26.398438 21.511719 26.398438 21.453125 26.398438 C 20.765625 26.394531 20.144531 26.15625 19.625 25.703125 C 18.992188 25.046875 18.953125 24.289062 18.960938 23.429688 C 18.964844 23.324219 18.964844 23.214844 18.960938 23.105469 C 18.964844 22.882812 18.964844 22.65625 18.964844 22.429688 C 18.96875 22.144531 18.96875 21.855469 18.96875 21.570312 C 18.96875 21.347656 18.96875 21.125 18.96875 20.898438 C 18.96875 20.792969 18.96875 20.6875 18.96875 20.582031 C 18.972656 19.726562 19.042969 19.042969 19.625 18.375 C 20.101562 17.9375 20.101562 17.9375 20.3125 17.9375 C 20.308594 17.867188 20.304688 17.796875 20.300781 17.726562 C 20.261719 16.613281 20.535156 15.714844 21.273438 14.859375 C 22.429688 13.628906 24.175781 13.289062 25.6875 14.0625 Z M 25.6875 14.0625 "/>
<path style=" stroke:none;fill-rule:nonzero;fill:rgb(97.254902%,72.549021%,13.725491%);fill-opacity:1;" d="M 25.136719 16.0625 C 25.40625 16.308594 25.578125 16.65625 25.6875 17 C 25.6875 17.226562 25.6875 17.453125 25.6875 17.6875 C 24.574219 17.6875 23.460938 17.6875 22.3125 17.6875 C 22.3125 17.015625 22.359375 16.628906 22.792969 16.125 C 23.507812 15.472656 24.363281 15.578125 25.136719 16.0625 Z M 25.136719 16.0625 "/>
<path style=" stroke:none;fill-rule:nonzero;fill:rgb(63.137257%,75.686276%,88.235295%);fill-opacity:1;" d="M 24.25 20.6875 C 24.46875 20.808594 24.605469 20.945312 24.6875 21.1875 C 24.707031 21.453125 24.703125 21.722656 24.707031 21.988281 C 24.707031 22.0625 24.710938 22.136719 24.710938 22.210938 C 24.71875 22.890625 24.71875 22.890625 24.4375 23.1875 C 24.207031 23.339844 24.019531 23.355469 23.75 23.3125 C 23.527344 23.175781 23.40625 23.054688 23.3125 22.8125 C 23.28125 22.535156 23.285156 22.257812 23.285156 21.976562 C 23.28125 21.898438 23.28125 21.824219 23.277344 21.746094 C 23.273438 21.117188 23.273438 21.117188 23.460938 20.886719 C 23.710938 20.675781 23.925781 20.632812 24.25 20.6875 Z M 24.25 20.6875 "/>
</g>
</svg>
